<svg width="48" height="48" viewBox="0 0 48 48" fill="none" xmlns="http://www.w3.org/2000/svg">
<path d="M39.36 3.83984H8.64C5.9904 3.83984 3.84 5.99024 3.84 8.63984V39.3598C3.84 42.0094 5.9904 44.1598 8.64 44.1598H39.36C42.0096 44.1598 44.16 42.0094 44.16 39.3598V8.63984C44.16 5.99024 42.0096 3.83984 39.36 3.83984ZM16.32 19.1998V37.4398H10.56V19.1998H16.32ZM10.56 13.891C10.56 12.547 11.712 11.5198 13.44 11.5198C15.168 11.5198 16.2528 12.547 16.32 13.891C16.32 15.235 15.2448 16.3198 13.44 16.3198C11.712 16.3198 10.56 15.235 10.56 13.891ZM37.44 37.4398H31.68C31.68 37.4398 31.68 28.5502 31.68 27.8398C31.68 25.9198 30.72 23.9998 28.32 23.9614H28.2432C25.92 23.9614 24.96 25.939 24.96 27.8398C24.96 28.7134 24.96 37.4398 24.96 37.4398H19.2V19.1998H24.96V21.6574C24.96 21.6574 26.8128 19.1998 30.5376 19.1998C34.3488 19.1998 37.44 21.8206 37.44 27.1294V37.4398Z" fill="white"/>
</svg>
