<svg width="40" height="40" viewBox="0 0 40 40" fill="none" xmlns="http://www.w3.org/2000/svg">
<g clip-path="url(#clip0_31_788)">
<path d="M29.12 23.9701C28.625 23.7217 26.19 22.5251 25.7367 22.3584C25.2817 22.1934 24.9517 22.1117 24.62 22.6084C24.2917 23.1034 23.3417 24.2184 23.0533 24.5484C22.765 24.8801 22.475 24.9201 21.98 24.6734C21.485 24.4234 19.8883 23.9017 17.9967 22.2151C16.525 20.9017 15.53 19.2801 15.2417 18.7834C14.9533 18.2884 15.2117 18.0201 15.4583 17.7734C15.6817 17.5517 15.955 17.1951 16.2017 16.9067C16.45 16.6167 16.5317 16.4101 16.6983 16.0784C16.8633 15.7484 16.7817 15.4601 16.6567 15.2117C16.5317 14.9634 15.5417 12.5251 15.13 11.5334C14.7267 10.5684 14.3183 10.7001 14.015 10.6834C13.7267 10.6701 13.3967 10.6667 13.065 10.6667C12.735 10.6667 12.1983 10.7901 11.745 11.2867C11.2917 11.7817 10.0117 12.9801 10.0117 15.4184C10.0117 17.8551 11.7867 20.2101 12.0333 20.5417C12.2817 20.8717 15.5267 25.8751 20.495 28.0201C21.6767 28.5301 22.5983 28.8351 23.3183 29.0617C24.505 29.4401 25.585 29.3867 26.4367 29.2584C27.3883 29.1167 29.3667 28.0601 29.78 26.9034C30.1933 25.7467 30.1933 24.7551 30.0683 24.5484C29.945 24.3417 29.6167 24.2184 29.12 23.9701ZM20.0833 36.3084H20.0767C17.1263 36.3086 14.2301 35.5154 11.6917 34.0117L11.09 33.6551L4.855 35.2917L6.51833 29.2117L6.12667 28.5884C4.4774 25.9622 3.6049 22.9229 3.61 19.8217C3.61167 10.7384 11.0033 3.3484 20.09 3.3484C24.49 3.3484 28.6267 5.06507 31.7367 8.1784C33.2711 9.7061 34.4874 11.5229 35.315 13.5238C36.1427 15.5247 36.5652 17.6698 36.5583 19.8351C36.5533 28.9184 29.1633 36.3084 20.0833 36.3084ZM34.105 5.8134C32.2687 3.96494 30.0837 2.4993 27.6768 1.5014C25.2699 0.503508 22.6889 -0.00679375 20.0833 6.82959e-05C9.15834 6.82959e-05 0.266668 8.89174 0.261668 19.8201C0.261668 23.3134 1.17333 26.7234 2.90833 29.7284L0.0950012 40.0001L10.6033 37.2434C13.5093 38.8266 16.7657 39.6563 20.075 39.6567H20.0833C31.0067 39.6567 39.9 30.7651 39.905 19.8351C39.9131 17.2305 39.4046 14.6502 38.4091 12.2435C37.4135 9.83668 35.9506 7.65119 34.105 5.8134Z" fill="white"/>
</g>
<defs>
<clipPath id="clip0_31_788">
<rect width="40" height="40" fill="white"/>
</clipPath>
</defs>
</svg>
