<svg width="48" height="48" viewBox="0 0 48 48" fill="none" xmlns="http://www.w3.org/2000/svg">
<path d="M46.996 12.3718C46.7248 11.3504 46.19 10.4181 45.4452 9.66837C44.7004 8.91862 43.7716 8.37773 42.752 8.09984C39.01 7.08984 24 7.08984 24 7.08984C24 7.08984 8.99 7.08984 5.246 8.09984C4.22682 8.37822 3.29859 8.91931 2.55416 9.66901C1.80972 10.4187 1.27518 11.3507 1.004 12.3718C0 16.1398 0 23.9998 0 23.9998C0 23.9998 0 31.8598 1.004 35.6278C1.27517 36.6493 1.80995 37.5816 2.55478 38.3313C3.29961 39.0811 4.22836 39.622 5.248 39.8998C8.99 40.9098 24 40.9098 24 40.9098C24 40.9098 39.01 40.9098 42.754 39.8998C43.7737 39.6222 44.7026 39.0813 45.4474 38.3315C46.1923 37.5818 46.727 36.6494 46.998 35.6278C48 31.8598 48 23.9998 48 23.9998C48 23.9998 48 16.1398 46.996 12.3718ZM19.09 31.1358V16.8638L31.636 23.9998L19.09 31.1358Z" fill="white"/>
</svg>
